<svg xmlns="http://www.w3.org/2000/svg" width="43.333" height="43.333" viewBox="0 0 43.333 43.333" fill="none">
  <path d="M 20.869 43.333 C 9.27 42.907 -0.005 33.376 0 21.668 C 0.005 9.695 9.712 -0.008 21.685 0 C 33.469 0.003 43.045 9.424 43.331 21.145 C 43.331 21.159 43.333 21.167 43.333 21.18 C 43.333 21.181 43.333 21.182 43.333 21.183 C 43.332 21.188 43.331 21.194 43.332 21.199 C 43.333 21.205 43.333 21.212 43.333 21.218 C 43.333 21.219 43.332 21.22 43.331 21.22 L 43.331 21.22 C 43.329 21.22 43.328 21.221 43.328 21.223 C 43.305 22.503 42.271 23.531 40.993 23.531 C 39.702 23.531 38.652 22.478 38.652 21.177 C 38.652 21.161 38.655 21.145 38.658 21.129 C 38.66 21.118 38.661 21.108 38.663 21.097 C 38.337 11.965 30.859 4.657 21.651 4.652 C 12.232 4.646 4.596 12.282 4.591 21.7 C 4.586 30.938 11.923 38.441 21.084 38.738 C 21.086 38.738 21.088 38.74 21.088 38.742 L 21.088 38.742 C 21.088 38.744 21.09 38.746 21.092 38.746 C 22.306 38.805 23.272 39.807 23.272 41.041 C 23.272 42.277 22.301 43.274 21.085 43.333 L 20.869 43.333 Z M 19.751 11.045 C 19.751 9.758 20.791 8.717 22.074 8.717 L 22.076 8.717 C 29.208 8.917 34.93 14.67 34.93 21.754 C 34.93 28.962 29.006 34.81 21.695 34.81 C 14.518 34.81 8.689 29.167 8.484 22.135 C 8.484 22.13 8.483 22.126 8.483 22.121 C 8.482 22.116 8.481 22.112 8.481 22.107 L 8.481 22.096 C 8.487 20.81 9.548 19.763 10.857 19.763 C 12.166 19.763 13.225 20.81 13.23 22.096 C 13.414 26.576 17.144 30.154 21.727 30.154 C 26.43 30.154 30.243 26.394 30.243 21.754 C 30.243 17.242 26.636 13.573 22.114 13.373 C 22.107 13.373 22.1 13.374 22.094 13.376 C 22.087 13.377 22.08 13.378 22.074 13.378 C 20.791 13.378 19.751 12.334 19.751 11.045 Z" fill="currentColor" fill-rule="evenodd"></path>
</svg>