<svg xmlns="http://www.w3.org/2000/svg" width="22" height="22" viewBox="0 0 22 22" fill="none">
  <path d="M 0.866 0.366 C 0.388 0.855 0.388 1.647 0.866 2.136 L 9.287 10.741 L 0.359 19.864 C -0.12 20.353 -0.12 21.145 0.359 21.634 C 0.837 22.122 1.612 22.122 2.09 21.634 L 11.018 12.51 L 19.91 21.597 C 20.388 22.085 21.163 22.085 21.641 21.597 C 22.12 21.108 22.12 20.316 21.641 19.828 L 12.749 10.741 L 21.134 2.172 C 21.612 1.684 21.612 0.892 21.134 0.403 C 20.656 -0.085 19.881 -0.085 19.403 0.403 L 11.018 8.972 L 2.597 0.366 C 2.119 -0.122 1.344 -0.122 0.866 0.366 Z" fill="currentColor" fill-rule="nonzero"></path>
</svg>