<svg xmlns="http://www.w3.org/2000/svg" width="20.385" height="24" viewBox="0 0 20.385 24" fill="none">
  <path d="M 6.2 1 C 6.2 0.448 6.648 0 7.2 0 L 13.2 0 C 13.752 0 14.2 0.448 14.2 1 C 14.2 1.552 13.752 2 13.2 2 L 7.2 2 C 6.648 2 6.2 1.552 6.2 1 Z" fill="currentColor" fill-rule="evenodd"></path>
  <path d="M 10.2 0 C 10.752 0 11.2 0.448 11.2 1 L 11.2 4 C 11.2 4.552 10.752 5 10.2 5 C 9.648 5 9.2 4.552 9.2 4 L 9.2 1 C 9.2 0.448 9.648 0 10.2 0 Z" fill="currentColor" fill-rule="evenodd"></path>
  <path d="M 14.751 20.58 C 13.459 21.475 11.891 22 10.2 22 C 5.782 22 2.2 18.418 2.2 14 C 2.2 12.309 2.725 10.741 3.62 9.448 L 2.187 8.016 C 0.939 9.684 0.2 11.756 0.2 14 C 0.2 19.523 4.677 24 10.2 24 C 12.444 24 14.516 23.261 16.184 22.013 L 14.751 20.58 Z" fill="currentColor" fill-rule="nonzero"></path>
  <path d="M 4.957 7.957 C 6.361 6.738 8.194 6 10.2 6 C 14.618 6 18.2 9.582 18.2 14 C 18.2 16.006 17.462 17.839 16.243 19.243 L 17.66 20.66 C 19.24 18.891 20.2 16.558 20.2 14 C 20.2 8.477 15.723 4 10.2 4 C 7.642 4 5.309 4.96 3.54 6.54 L 4.957 7.957 Z" fill="currentColor" fill-rule="nonzero"></path>
  <path d="M 0.293 2.107 C 0.683 1.717 1.317 1.717 1.707 2.107 L 20.092 20.492 C 20.482 20.882 20.482 21.516 20.092 21.906 C 19.701 22.297 19.068 22.297 18.678 21.906 L 0.293 3.521 C -0.098 3.131 -0.098 2.498 0.293 2.107 Z" fill="currentColor" fill-rule="nonzero"></path>
</svg>