<svg xmlns="http://www.w3.org/2000/svg" width="21.152" height="23.999" viewBox="0 0 21.152 23.999" fill="none">
  <path d="M 16.544 1.477 C 17.059 0.51 15.866 -0.461 15.023 0.238 L 6.722 7.122 L 1.707 2.107 C 1.317 1.717 0.683 1.717 0.293 2.107 C -0.098 2.498 -0.098 3.131 0.293 3.521 L 18.678 21.906 C 19.068 22.297 19.701 22.297 20.092 21.906 C 20.482 21.516 20.482 20.882 20.092 20.492 L 15.64 16.04 L 20.788 11.77 C 21.509 11.173 21.087 10.001 20.15 10.001 L 12.067 10.001 C 12.048 10.001 12.029 10.001 12.011 10.002 L 16.544 1.477 Z" fill="currentColor" fill-rule="nonzero"></path>
  <path d="M 0.564 12.229 L 3.754 9.583 L 8.17 13.998 L 1.202 13.998 C 0.265 13.998 -0.157 12.827 0.564 12.229 Z" fill="currentColor" fill-rule="nonzero"></path>
  <path d="M 4.808 22.522 L 8.934 14.763 L 12.672 18.501 L 6.329 23.761 C 5.486 24.461 4.293 23.489 4.808 22.522 Z" fill="currentColor" fill-rule="nonzero"></path>
</svg>