<svg xmlns="http://www.w3.org/2000/svg" width="24" height="24" viewBox="0 0 24 24" fill="none">
  <path d="M 3 0 C 1.34 0 0 1.34 0 3 L 0 21 C 0 22.66 1.34 24 3 24 L 21 24 C 22.66 24 24 22.66 24 21 L 24 3 C 24 1.34 22.66 0 21 0 L 3 0 Z M 21 2 L 3 2 C 2.45 2 2 2.45 2 3 L 2 21 C 2 21.55 2.45 22 3 22 L 21 22 C 21.55 22 22 21.55 22 21 L 22 3 C 22 2.45 21.55 2 21 2 Z" fill="currentColor" fill-rule="evenodd"></path>
  <path d="M 16.282 12.967 C 15.99 12.677 15.518 12.677 15.225 12.967 L 13.5 14.692 L 10.282 11.475 C 9.99 11.184 9.518 11.184 9.225 11.475 L 3.975 16.725 C 3.685 17.021 3.69 17.496 3.985 17.786 C 4.123 17.92 4.307 17.997 4.5 18 L 19.5 18 C 19.914 18.002 20.252 17.669 20.254 17.254 C 20.256 17.053 20.176 16.859 20.032 16.717 L 16.282 12.967 Z" fill="currentColor" fill-rule="nonzero"></path>
  <path d="M 14.25 10.5 C 15.493 10.5 16.5 9.493 16.5 8.25 C 16.5 7.007 15.493 6 14.25 6 C 13.007 6 12 7.007 12 8.25 C 12 9.493 13.007 10.5 14.25 10.5 Z" fill="currentColor" fill-rule="nonzero"></path>
</svg>