<svg xmlns="http://www.w3.org/2000/svg" width="24" height="24" viewBox="0 0 24 24" fill="none">
  <path d="M 6.34 24 C 4.65 24 3.06 23.34 1.86 22.14 C 0.66 20.95 0 19.35 0 17.66 C 0 15.99 0.68 14.36 1.86 13.18 L 5.63 9.41 C 6.83 8.21 8.42 7.55 10.11 7.55 C 11.8 7.55 13.39 8.21 14.59 9.41 C 14.98 9.8 14.98 10.43 14.59 10.82 C 14.2 11.21 13.57 11.21 13.18 10.82 C 12.37 10.01 11.25 9.55 10.11 9.55 C 8.95 9.55 7.86 10 7.04 10.82 L 3.27 14.59 C 2.46 15.4 2 16.52 2 17.66 C 2 18.82 2.45 19.91 3.27 20.73 C 4.09 21.55 5.18 22 6.34 22 C 7.5 22 8.59 21.55 9.41 20.73 L 11.3 18.84 C 11.69 18.45 12.32 18.45 12.71 18.84 C 13.1 19.23 13.1 19.86 12.71 20.25 L 10.82 22.14 C 9.62 23.34 8.03 24 6.34 24 Z" fill="currentColor" fill-rule="nonzero"></path>
  <path d="M 13.89 16.45 C 12.2 16.45 10.61 15.79 9.41 14.59 C 9.02 14.2 9.02 13.57 9.41 13.18 C 9.8 12.79 10.43 12.79 10.82 13.18 C 11.64 14 12.73 14.45 13.89 14.45 C 15.03 14.45 16.15 13.99 16.96 13.18 L 20.74 9.41 C 21.55 8.59 22 7.5 22 6.34 C 22 5.18 21.55 4.09 20.73 3.27 C 19.91 2.45 18.82 2 17.66 2 C 16.52 2 15.4 2.46 14.59 3.27 L 12.7 5.16 C 12.31 5.55 11.68 5.55 11.29 5.16 C 10.9 4.77 10.9 4.14 11.29 3.75 L 13.18 1.86 C 14.36 0.68 15.99 0 17.66 0 C 19.35 0 20.94 0.66 22.14 1.86 C 23.34 3.05 24 4.65 24 6.34 C 24 8.03 23.34 9.62 22.14 10.82 L 18.36 14.59 C 17.17 15.79 15.58 16.45 13.89 16.45 Z" fill="currentColor" fill-rule="nonzero"></path>
</svg>