<svg xmlns="http://www.w3.org/2000/svg" width="20" height="24" viewBox="0 0 20 24" fill="none">
  <path d="M 12 14 C 12 14.753 11.584 15.409 10.969 15.75 C 10.989 15.83 11 15.914 11 16 L 11 18 C 11 18.552 10.552 19 10 19 C 9.448 19 9 18.552 9 18 L 9 16 C 9 15.914 9.011 15.83 9.031 15.75 C 8.416 15.409 8 14.753 8 14 C 8 12.895 8.895 12 10 12 C 11.105 12 12 12.895 12 14 Z" fill="currentColor" fill-rule="nonzero"></path>
  <path d="M 5 8 L 5 4 C 5 1.791 6.791 0 9 0 L 11 0 C 13.209 0 15 1.791 15 4 L 15 8 L 16 8 C 18.209 8 20 9.791 20 12 L 20 20 C 20 22.209 18.209 24 16 24 L 4 24 C 1.791 24 0 22.209 0 20 L 0 12 C 0 9.791 1.791 8 4 8 L 5 8 Z M 9 2 L 11 2 C 12.105 2 13 2.895 13 4 L 13 8 L 7 8 L 7 4 C 7 2.895 7.895 2 9 2 Z M 4 10 C 2.895 10 2 10.895 2 12 L 2 20 C 2 21.105 2.895 22 4 22 L 16 22 C 17.105 22 18 21.105 18 20 L 18 12 C 18 10.895 17.105 10 16 10 L 4 10 Z" fill="currentColor" fill-rule="evenodd"></path>
</svg>