<svg xmlns="http://www.w3.org/2000/svg" width="24" height="24" viewBox="0 0 24 24" fill="none">
  <path d="M 10.991 23.996 C 11.028 23.998 11.065 24 11.102 24 C 11.436 24 11.757 23.876 12.003 23.65 C 12.25 23.422 12.404 23.111 12.431 22.775 C 12.461 22.419 12.35 22.074 12.12 21.801 C 11.89 21.529 11.568 21.362 11.213 21.332 C 8.89 21.139 6.736 20.083 5.146 18.362 C 3.549 16.631 2.669 14.378 2.669 12.019 C 2.669 10.756 2.915 9.533 3.402 8.381 C 3.871 7.268 4.545 6.268 5.402 5.409 C 6.259 4.551 7.257 3.876 8.369 3.406 C 9.518 2.919 10.74 2.671 12 2.671 C 13.261 2.671 14.482 2.919 15.632 3.406 C 16.743 3.876 17.741 4.551 18.599 5.409 C 19.457 6.268 20.129 7.268 20.599 8.381 C 21.085 9.533 21.332 10.756 21.332 12.019 C 21.332 12.259 21.322 12.512 21.301 12.772 C 21.242 13.507 21.791 14.152 22.525 14.21 C 23.259 14.269 23.902 13.719 23.96 12.985 C 23.987 12.654 24 12.33 24 12.019 C 24 10.397 23.683 8.822 23.056 7.34 C 22.452 5.908 21.587 4.623 20.485 3.52 C 19.384 2.417 18.1 1.55 16.672 0.944 C 15.191 0.317 13.62 0 12 0 C 10.381 0 8.81 0.317 7.329 0.944 C 5.9 1.55 4.617 2.417 3.516 3.52 C 2.414 4.623 1.548 5.908 0.944 7.34 C 0.318 8.822 0 10.397 0 12.019 C 0 15.053 1.132 17.95 3.188 20.176 C 5.231 22.389 8.002 23.746 10.991 23.996 Z" fill="currentColor" fill-rule="nonzero"></path>
  <path d="M 10.695 19.313 C 11.188 19.416 11.686 19.467 12.186 19.467 C 12.567 19.467 12.95 19.436 13.33 19.377 C 14.309 19.224 15.227 18.883 16.058 18.364 C 16.861 17.863 17.549 17.217 18.104 16.446 C 18.657 15.675 19.049 14.817 19.27 13.894 C 19.497 12.94 19.528 11.961 19.362 10.984 C 19.054 9.158 18.077 7.523 16.614 6.379 C 15.159 5.241 13.351 4.688 11.524 4.819 C 11.184 4.844 10.863 5.007 10.642 5.265 C 10.42 5.524 10.311 5.867 10.339 6.207 C 10.367 6.545 10.526 6.853 10.784 7.075 C 11.043 7.295 11.372 7.404 11.711 7.379 C 12.902 7.293 14.082 7.655 15.034 8.4 C 15.991 9.149 16.63 10.218 16.832 11.409 C 16.939 12.046 16.918 12.68 16.773 13.298 C 16.63 13.894 16.377 14.449 16.018 14.947 C 15.66 15.446 15.216 15.863 14.697 16.187 C 14.16 16.522 13.566 16.743 12.932 16.842 C 12.295 16.942 11.656 16.914 11.035 16.759 C 10.432 16.61 9.868 16.348 9.36 15.981 C 8.851 15.615 8.425 15.162 8.091 14.637 C 7.748 14.093 7.518 13.494 7.41 12.857 C 7.39 12.736 7.373 12.608 7.361 12.474 C 7.332 12.136 7.173 11.828 6.913 11.608 C 6.654 11.388 6.324 11.281 5.985 11.307 C 5.646 11.333 5.325 11.496 5.104 11.756 C 4.884 12.015 4.775 12.359 4.805 12.698 C 4.823 12.899 4.848 13.095 4.88 13.283 C 5.044 14.258 5.397 15.176 5.925 16.009 C 6.434 16.812 7.085 17.502 7.859 18.062 C 8.634 18.621 9.495 19.021 10.417 19.25 C 10.51 19.272 10.603 19.294 10.695 19.313 Z" fill="currentColor" fill-rule="nonzero"></path>
</svg>