<svg xmlns="http://www.w3.org/2000/svg" width="24" height="23.863" viewBox="0 0 24 23.863" fill="none">
  <path d="M 10.078 5.039 C 10.078 6.796 9.179 8.343 7.816 9.245 L 9.839 10.395 L 20.218 4.403 C 21.543 3.638 23.236 4.092 24 5.416 L 12.541 11.931 L 24 18.447 C 23.236 19.771 21.543 20.224 20.218 19.46 L 9.839 13.467 L 7.816 14.618 C 9.179 15.52 10.078 17.067 10.078 18.823 C 10.078 21.607 7.822 23.863 5.039 23.863 C 2.256 23.863 0 21.607 0 18.823 C 0 16.535 1.526 14.602 3.616 13.988 L 7.179 11.931 L 3.616 9.875 C 1.526 9.26 0 7.328 0 5.039 C 0 2.256 2.256 0 5.039 0 C 7.822 0 10.078 2.256 10.078 5.039 Z M 5.039 8.063 C 6.709 8.063 8.063 6.709 8.063 5.039 C 8.063 3.369 6.709 2.016 5.039 2.016 C 3.369 2.016 2.016 3.369 2.016 5.039 C 2.016 6.709 3.369 8.063 5.039 8.063 Z M 5.039 15.8 C 6.709 15.8 8.063 17.154 8.063 18.823 C 8.063 20.493 6.709 21.847 5.039 21.847 C 3.369 21.847 2.016 20.493 2.016 18.823 C 2.016 17.154 3.369 15.8 5.039 15.8 Z" fill="currentColor" fill-rule="evenodd"></path>
</svg>