<svg xmlns="http://www.w3.org/2000/svg" width="24" height="24" viewBox="0 0 24 24" fill="none">
  <path d="M 2 4.9 L 2 2.62 C 2 2.28 2.28 2 2.62 2 L 4.9 2 C 5.45 2 5.9 1.55 5.9 1 C 5.9 0.45 5.45 0 4.9 0 L 1 0 C 0.45 0 0 0.45 0 1 L 0 4.9 C 0 5.45 0.45 5.9 1 5.9 C 1.55 5.9 2 5.45 2 4.9 Z" fill="currentColor" fill-rule="nonzero"></path>
  <path d="M 12.768 6.659 C 12.793 6.777 12.821 6.899 12.85 7.011 L 13.247 7.088 C 13.323 7.003 13.391 6.926 13.451 6.857 C 13.822 6.428 13.881 6.304 13.881 6.238 C 13.881 6.213 13.882 6.187 13.884 6.16 C 13.886 6.135 13.888 6.109 13.892 6.083 C 13.903 6.012 13.92 5.939 13.947 5.868 C 13.987 5.764 14.048 5.665 14.134 5.59 C 14.154 5.572 14.175 5.556 14.198 5.541 C 14.277 5.464 14.436 5.387 14.595 5.387 C 14.753 5.387 15.15 5.464 15.388 6.006 C 15.625 6.702 15.546 7.398 15.15 8.094 L 15.192 8.149 C 15.433 8.464 15.811 8.958 16.26 9.177 C 16.756 9.384 16.745 9.9 16.737 10.284 C 16.736 10.329 16.736 10.373 16.736 10.414 C 16.916 10.649 17.416 11.106 18.27 11.887 C 18.541 12.136 18.849 12.417 19.194 12.735 C 19.239 12.779 19.258 12.798 19.282 12.806 C 19.299 12.812 19.318 12.812 19.352 12.812 C 19.367 12.826 19.383 12.84 19.402 12.855 C 19.486 12.925 19.604 13.023 19.669 13.276 C 19.669 13.308 19.683 13.34 19.699 13.378 C 19.722 13.431 19.749 13.495 19.749 13.586 C 19.907 13.895 20.224 14.978 19.749 15.829 C 19.669 15.906 19.669 15.983 19.669 16.061 C 19.59 16.138 19.59 16.215 19.59 16.215 C 19.273 16.68 18.401 17.066 17.053 16.602 C 16.973 16.602 16.815 16.525 16.736 16.37 C 16.656 16.293 16.577 16.215 16.577 16.138 C 16.567 16.128 16.558 16.118 16.549 16.109 C 16.49 16.042 16.437 15.983 16.022 15.983 L 15.625 15.983 C 15.07 15.906 14.753 15.829 14.436 15.751 C 14.396 15.751 14.357 15.732 14.317 15.713 C 14.277 15.693 14.238 15.674 14.198 15.674 C 14.158 15.674 14.119 15.693 14.079 15.713 C 14.04 15.732 14 15.751 13.96 15.751 L 13.898 15.764 C 13.438 15.856 12.171 16.109 11.264 15.519 C 11.183 15.638 11.09 15.77 10.989 15.914 C 10.498 16.616 9.808 17.6 9.282 18.691 C 9.193 18.768 8.904 18.768 8.885 18.768 C 8.806 18.768 8.648 18.768 8.568 18.691 C 6.269 17.221 5 14.901 5 12.193 C 5 12.028 5.023 11.84 5.044 11.665 C 5.062 11.514 5.079 11.373 5.079 11.265 C 5.079 11.11 5.159 10.956 5.317 10.878 L 5.793 10.569 L 5.872 10.515 C 7.663 9.3 9.222 8.242 10.551 7.785 C 10.707 7.328 11.016 6.497 11.177 6.102 L 11.185 6.083 L 11.185 6.006 L 11.186 6.003 L 11.209 5.936 C 11.36 5.489 11.526 5 11.978 5 C 12.289 5 12.448 5.149 12.538 5.356 C 12.609 5.518 12.637 5.716 12.665 5.906 C 12.669 5.939 12.674 5.973 12.679 6.006 L 12.685 6.043 L 12.692 6.083 L 12.692 6.16 C 12.692 6.166 12.692 6.173 12.692 6.18 C 12.692 6.194 12.693 6.21 12.695 6.228 L 12.696 6.238 C 12.706 6.344 12.733 6.497 12.768 6.659 Z M 8.583 16.837 C 9.016 16.113 9.461 15.48 9.781 15.025 C 9.874 14.892 9.957 14.774 10.026 14.673 C 10.486 14 11.399 13.818 12.082 14.262 C 12.199 14.338 12.427 14.404 12.792 14.397 C 13.088 14.391 13.35 14.343 13.562 14.301 C 13.581 14.293 13.601 14.285 13.623 14.277 C 13.735 14.237 13.939 14.174 14.198 14.174 C 14.458 14.174 14.661 14.237 14.773 14.277 C 14.803 14.288 14.831 14.299 14.854 14.309 C 15.107 14.371 15.345 14.426 15.732 14.483 L 16.022 14.483 C 16.278 14.483 16.66 14.495 17.027 14.648 C 17.448 14.824 17.858 15.292 17.624 15.064 C 17.686 15.125 17.743 15.19 17.793 15.259 C 18.051 15.324 18.218 15.322 18.318 15.307 C 18.356 15.219 18.404 15.129 18.464 15.039 C 18.492 14.959 18.511 14.83 18.493 14.647 C 18.483 14.538 18.462 14.435 18.439 14.354 C 18.423 14.3 18.411 14.268 18.408 14.258 L 18.407 14.255 C 18.356 14.155 18.318 14.05 18.291 13.941 C 18.275 13.928 18.262 13.916 18.251 13.907 C 18.216 13.876 18.181 13.842 18.161 13.823 C 17.834 13.522 17.534 13.247 17.265 13.001 L 17.263 13 C 16.966 12.728 16.709 12.492 16.498 12.297 C 16.124 11.95 15.759 11.605 15.546 11.329 C 15.345 11.066 15.236 10.745 15.236 10.414 C 15.236 10.381 15.236 10.345 15.237 10.313 C 14.933 10.109 14.691 9.873 14.516 9.684 C 14.297 9.448 14.108 9.202 13.998 9.057 L 13.961 9.008 C 13.845 8.858 13.761 8.69 13.71 8.515 C 13.472 8.592 13.214 8.61 12.959 8.561 L 12.563 8.483 C 12.35 8.442 12.153 8.355 11.982 8.234 L 11.97 8.27 C 11.82 8.708 11.477 9.052 11.039 9.203 C 9.925 9.586 8.533 10.523 6.635 11.81 L 6.611 11.827 L 6.529 11.88 C 6.508 12.056 6.5 12.143 6.5 12.193 C 6.5 14.053 7.224 15.663 8.583 16.837 Z" fill="currentColor" fill-rule="evenodd"></path>
  <path d="M 2.62 22 L 4.9 22 C 5.45 22 5.9 22.45 5.9 23 C 5.9 23.55 5.45 24 4.9 24 L 1 24 C 0.45 24 0 23.55 0 23 L 0 19.1 C 0 18.55 0.45 18.1 1 18.1 C 1.55 18.1 2 18.55 2 19.1 L 2 21.38 C 2 21.72 2.28 22 2.62 22 Z" fill="currentColor" fill-rule="nonzero"></path>
  <path d="M 22 19.1 L 22 21.38 C 22 21.72 21.73 21.99 21.39 21.99 L 19.1 21.99 C 18.55 21.99 18.1 22.44 18.1 22.99 C 18.1 23.54 18.55 23.99 19.1 23.99 L 23 23.99 C 23.55 23.99 24 23.54 24 22.99 L 24 19.1 C 24 18.55 23.55 18.1 23 18.1 C 22.45 18.1 22 18.55 22 19.1 Z" fill="currentColor" fill-rule="nonzero"></path>
  <path d="M 21.38 2 L 19.1 2 C 18.55 2 18.1 1.55 18.1 1 C 18.1 0.45 18.55 0 19.1 0 L 23 0 C 23.55 0 24 0.45 24 1 L 24 4.9 C 24 5.45 23.55 5.9 23 5.9 C 22.45 5.9 22 5.45 22 4.9 L 22 2.62 C 22 2.28 21.72 2 21.38 2 Z" fill="currentColor" fill-rule="nonzero"></path>
</svg>